<svg xmlns="http://www.w3.org/2000/svg" width="20" height="18" viewBox="0 0 20 18">
  <path fill="#666" fill-rule="evenodd" d="M37.1286639,16.6384757 L45.035203,16.6384757 C45.5890714,16.6384757 46.0380705,17.086674 46.0380705,17.6414042 L46.0380705,29.5810825 C46.0380705,30.1349847 45.5886538,30.584011 45.035203,30.584011 L36.5817864,30.584011 C36.027918,30.584011 35.578919,30.1358127 35.578919,29.5810825 L35.578919,27.9198555 L27.6723799,27.9198555 C27.1185115,27.9198555 26.6695124,27.4716572 26.6695124,26.916927 L26.6695124,14.9772487 C26.6695124,14.4233466 27.1189291,13.9743202 27.6723799,13.9743202 L36.1257965,13.9743202 C36.6796649,13.9743202 37.1286639,14.4225185 37.1286639,14.9772487 L37.1286639,16.6384757 Z M37.1286639,16.6384757 L36.5817864,16.6384757 C36.0283356,16.6384757 35.578919,17.0875021 35.578919,17.6414042 L35.578919,27.9198555 L36.1257965,27.9198555 C36.6792473,27.9198555 37.1286639,27.4708291 37.1286639,26.916927 L37.1286639,16.6384757 Z M32.6048294,22.9934635 L34.9295717,21.0698655 C34.9295717,21.0698655 35.1138244,20.9119347 34.9485234,20.7466337 C34.721103,20.5192133 32.5490271,18.8830495 32.5490271,18.8830495 C32.5490271,18.8830495 32.2605401,18.5924567 32.2605401,18.977808 L32.2605401,19.9790897 L31.8362325,19.9790897 L28.918723,19.9790897 C28.918723,19.9790897 28.7807967,19.9748782 28.7807967,20.1538665 L28.7807967,21.6784258 C28.7807967,21.9279566 28.9460977,21.8858417 28.9460977,21.8858417 L31.8572899,21.8858417 L32.3289768,21.8858417 L32.3289768,22.9692474 C32.3279239,23.2851091 32.6048294,22.9934635 32.6048294,22.9934635 Z M40.1590822,25.6752164 C40.1590822,25.6752164 40.4475693,25.9647563 40.4475693,25.5804579 L40.4475693,24.5791762 L40.870824,24.5791762 L43.7883335,24.5791762 C43.7883335,24.5791762 43.9273126,24.5844406 43.9273126,24.4054523 L43.9273126,22.8798401 C43.9273126,22.6303093 43.7630645,22.6734771 43.7630645,22.6734771 L40.8508194,22.6734771 L40.3791325,22.6734771 L40.3791325,21.5900714 C40.3791325,21.2731568 40.10328,21.5658553 40.10328,21.5658553 L37.7774848,23.4884004 C37.7774848,23.4884004 37.5932321,23.6463312 37.7585331,23.8126851 C37.9859535,24.0379998 40.1590822,25.6752164 40.1590822,25.6752164 Z" transform="translate(-26.283 -13.066)"/>
</svg>
