<svg id="svg2" xmlns:rdf="http://www.w3.org/1999/02/22-rdf-syntax-ns#" xmlns="http://www.w3.org/2000/svg" height="18" width="20" version="1.1" xmlns:cc="http://creativecommons.org/ns#" xmlns:dc="http://purl.org/dc/elements/1.1/" viewBox="0 0 20 18">
<path id="path5" d="m15.752 1.49h-13.241c-.91032 0-1.6551.74480-1.6551 1.6551v9.9307c0 .91032.74480 1.6551 1.6551 1.6551h13.241c.91032 0 1.6551-.74480 1.6551-1.6551v-9.9307c0-.91032-.74480-1.6551-1.6551-1.6551zm0 3.3102-6.6205 4.1378-6.6205-4.1378v-1.6551l6.6205 4.1378 6.6205-4.1378v1.6551z" class="st0" fill="#666"/>
<path id="path9" d="m18.317 12.414h-.82756v-.82756c0-.91032-.74480-1.5724-1.5724-1.5724-.82756 0-1.5724.74480-1.5724 1.5724v.82756h-.82756c-.91032 0-1.5724.74480-1.5724 1.5724 0 .82756.74480 1.5724 1.5724 1.5724h.82756v.82756c0 .91032.74480 1.5724 1.5724 1.5724.82756 0 1.5724-.74480 1.5724-1.5724v-.82756h.82756c.91032 0 1.5724-.74480 1.5724-1.5724 0-.82756-.66205-1.5724-1.5724-1.5724z" class="st2" fill="#fff"/>
<path id="path11" d="m18.317 13.241h-1.5724v-1.5724c0-.41378-.33102-.82756-.82756-.82756-.41378 0-.82756.33102-.82756.82756v1.5724h-1.5724c-.41378 0-.82756.33102-.82756.82756s.33102.82756.82756.82756h1.5724v1.4896c0 .41378.33102.82756.82756.82756.41378 0 .82756-.33102.82756-.82756v-1.5724h1.5724c.41378 0 .82756-.33102.82756-.82756s-.41378-.74480-.82756-.74480z" class="st4" fill="#666"/>
</svg>
