<svg xmlns="http://www.w3.org/2000/svg" width="18" height="16" viewBox="0 0 18 16">
  <path fill="#666" d="M7.8311169,0.380845695 C7.94112286,0.158655451 8.16766977,0.0177897417 8.41527393,0.0177897417 C8.66287809,0.0177897417 8.88978806,0.158655451 8.99943096,0.380845695 L11.0946269,4.62678506 C11.1893845,4.81884166 11.3730908,4.9520832 11.5854785,4.98294295 L16.2710786,5.66367287 C16.5168675,5.69925235 16.7201789,5.87134087 16.7967837,6.10696418 C16.8733885,6.3425875 16.8094906,6.60180945 16.6319563,6.77462408 L13.2417398,10.0798855 C13.0881671,10.2294645 13.0180973,10.4451198 13.0540398,10.6564183 L13.8542152,15.3235026 C13.8956035,15.5682023 13.7957632,15.8150804 13.5946302,15.9610289 C13.3938602,16.1062512 13.1284663,16.1254932 12.9084544,16.0107675 L8.71733649,13.8070179 C8.52782128,13.7071775 8.30091131,13.7071775 8.11103304,13.8070179 L3.91991512,16.0104045 C3.70062933,16.1254932 3.43450931,16.1066143 3.23373937,15.9610289 C3.03296943,15.8154434 2.93276599,15.5682023 2.97451742,15.3235026 L3.77469274,10.6564183 C3.81099834,10.4451198 3.74056548,10.2294645 3.58699281,10.0798855 L0.196776326,6.77462408 C0.0192419655,6.60144639 -0.0446558822,6.3425875 0.0319489239,6.10696418 C0.10855373,5.87134087 0.31222812,5.69925235 0.558017,5.66367287 L5.24434324,4.98294295 C5.45636792,4.9520832 5.64007423,4.81884166 5.73483183,4.62642201 L7.8311169,0.380845695 Z" transform="translate(.571 -.066)"/>
</svg>
